HIERARCHY
ROOT __0
{
	OFFSET 0.0 0.0 0.0
	CHANNELS 0
	JOINT @Control_Master
	{
		OFFSET 0.000000 0.000000 0.000000
		CHANNELS 6 Xposition Yposition Zposition Xrotation Yrotation Zrotation
		JOINT Spine
		{
			OFFSET 0.000000 0.000000 0.000000
			CHANNELS 6 Xposition Yposition Zposition Xrotation Yrotation Zrotation
			JOINT Spine1
			{
				OFFSET 0.002437 0.012264 0.155785
				CHANNELS 3 Xrotation Yrotation Zrotation
				JOINT Spine2
				{
					OFFSET -0.002425 0.014416 0.130786
					CHANNELS 3 Xrotation Yrotation Zrotation
					JOINT Spine3
					{
						OFFSET -0.000019 0.006789 0.151527
						CHANNELS 3 Xrotation Yrotation Zrotation
						JOINT Neck
						{
							OFFSET 0.000023 -0.008814 0.116985
							CHANNELS 3 Xrotation Yrotation Zrotation
							JOINT Neck1
							{
								OFFSET 0.000000 -0.016612 0.071385
								CHANNELS 3 Xrotation Yrotation Zrotation
								JOINT Head
								{
									OFFSET -0.000023 -0.001893 0.041023
									CHANNELS 3 Xrotation Yrotation Zrotation
									End Site
									{
										OFFSET 0.000006 -0.001526 0.034417
									}
								}
							}
						}
					}
					JOINT RightShoulder
					{
						OFFSET -0.064055 -0.021555 0.213400
						CHANNELS 6 Xposition Yposition Zposition Xrotation Yrotation Zrotation
						JOINT RightArm
						{
							OFFSET -0.138742 0.044818 -0.023253
							CHANNELS 3 Xrotation Yrotation Zrotation
							JOINT RightForeArm
							{
								OFFSET -0.175251 0.034509 -0.193627
								CHANNELS 3 Xrotation Yrotation Zrotation
								JOINT RightHand
								{
									OFFSET -0.208497 -0.010217 -0.217138
									CHANNELS 3 Xrotation Yrotation Zrotation
									JOINT RightHandMiddle1
									{
										OFFSET -0.068608 -0.013297 -0.065413
										CHANNELS 3 Xrotation Yrotation Zrotation
										JOINT RightHandMiddle2
										{
											OFFSET -0.029830 -0.000720 -0.031539
											CHANNELS 3 Xrotation Yrotation Zrotation
											JOINT RightHandMiddle3
											{
												OFFSET -0.017946 -0.000416 -0.018852
												CHANNELS 3 Xrotation Yrotation Zrotation
												End Site
												{
													OFFSET -0.016072 -0.000522 -0.016943
												}
											}
										}
									}
									JOINT RightHandIndex1
									{
										OFFSET -0.064175 -0.035544 -0.061509
										CHANNELS 6 Xposition Yposition Zposition Xrotation Yrotation Zrotation
										JOINT RightHandIndex2
										{
											OFFSET -0.028183 -0.009867 -0.027159
											CHANNELS 3 Xrotation Yrotation Zrotation
											JOINT RightHandIndex3
											{
												OFFSET -0.016533 -0.005749 -0.015928
												CHANNELS 3 Xrotation Yrotation Zrotation
												End Site
												{
													OFFSET -0.014830 -0.005209 -0.014267
												}
											}
										}
									}
									JOINT RightHandRing
									{
										OFFSET -0.046405 0.003329 -0.047084
										CHANNELS 6 Xposition Yposition Zposition Xrotation Yrotation Zrotation
										JOINT RightHandRing1
										{
											OFFSET -0.017651 0.005483 -0.017340
											CHANNELS 3 Xrotation Yrotation Zrotation
											JOINT RightHandRing2
											{
												OFFSET -0.024964 0.007655 -0.024273
												CHANNELS 3 Xrotation Yrotation Zrotation
												JOINT RightHandRing3
												{
													OFFSET -0.017087 0.005242 -0.016765
													CHANNELS 3 Xrotation Yrotation Zrotation
													End Site
													{
														OFFSET -0.015061 0.004559 -0.014753
													}
												}
											}
										}
									}
									JOINT RightHandPinky1
									{
										OFFSET -0.054365 0.031313 -0.061934
										CHANNELS 6 Xposition Yposition Zposition Xrotation Yrotation Zrotation
										JOINT RightHandPinky2
										{
											OFFSET -0.018869 0.006308 -0.017482
											CHANNELS 3 Xrotation Yrotation Zrotation
											JOINT RightHandPinky3
											{
												OFFSET -0.014749 0.004932 -0.013869
												CHANNELS 3 Xrotation Yrotation Zrotation
												End Site
												{
													OFFSET -0.012983 0.004356 -0.012108
												}
											}
										}
									}
									JOINT RightHandThumb1
									{
										OFFSET -0.003161 -0.027093 -0.003541
										CHANNELS 6 Xposition Yposition Zposition Xrotation Yrotation Zrotation
										JOINT RightHandThumb2
										{
											OFFSET -0.023288 -0.036229 -0.028074
											CHANNELS 3 Xrotation Yrotation Zrotation
											JOINT RightHandThumb3
											{
												OFFSET -0.017528 -0.020656 -0.021358
												CHANNELS 3 Xrotation Yrotation Zrotation
												End Site
												{
													OFFSET -0.013673 -0.012688 -0.017614
												}
											}
										}
									}
								}
							}
							JOINT RightForeArmRoll
							{
								OFFSET -0.175251 0.034509 -0.193627
								CHANNELS 3 Xrotation Yrotation Zrotation
								End Site
								{
									OFFSET -0.208497 -0.010217 -0.217138
								}
							}
							JOINT @Control_RArmTwist
							{
								OFFSET -0.277806 0.033755 -0.191530
								CHANNELS 6 Xposition Yposition Zposition Xrotation Yrotation Zrotation
								End Site
								{
									OFFSET -0.142991 0.000000 -0.153161
								}
							}
						}
						JOINT RightArmRoll
						{
							OFFSET -0.138742 0.044818 -0.023253
							CHANNELS 3 Xrotation Yrotation Zrotation
							End Site
							{
								OFFSET -0.175251 0.034509 -0.193627
							}
						}
					}
					JOINT LeftShoulder
					{
						OFFSET 0.064030 -0.021555 0.213400
						CHANNELS 6 Xposition Yposition Zposition Xrotation Yrotation Zrotation
						JOINT LeftArm
						{
							OFFSET 0.138742 0.044818 -0.023253
							CHANNELS 3 Xrotation Yrotation Zrotation
							JOINT LeftForeArm
							{
								OFFSET 0.175251 0.034509 -0.193627
								CHANNELS 3 Xrotation Yrotation Zrotation
								JOINT LeftHand
								{
									OFFSET 0.208497 -0.010217 -0.217138
									CHANNELS 3 Xrotation Yrotation Zrotation
									JOINT LeftHandMiddle1
									{
										OFFSET 0.068608 -0.013297 -0.065413
										CHANNELS 3 Xrotation Yrotation Zrotation
										JOINT LeftHandMiddle2
										{
											OFFSET 0.029830 -0.000720 -0.031539
											CHANNELS 3 Xrotation Yrotation Zrotation
											JOINT LeftHandMiddle3
											{
												OFFSET 0.017946 -0.000416 -0.018852
												CHANNELS 3 Xrotation Yrotation Zrotation
												End Site
												{
													OFFSET 0.016072 -0.000522 -0.016943
												}
											}
										}
									}
									JOINT LeftHandIndex1
									{
										OFFSET 0.064175 -0.035544 -0.061509
										CHANNELS 6 Xposition Yposition Zposition Xrotation Yrotation Zrotation
										JOINT LeftHandIndex2
										{
											OFFSET 0.028183 -0.009867 -0.027159
											CHANNELS 3 Xrotation Yrotation Zrotation
											JOINT LeftHandIndex3
											{
												OFFSET 0.016533 -0.005749 -0.015928
												CHANNELS 3 Xrotation Yrotation Zrotation
												End Site
												{
													OFFSET 0.014830 -0.005209 -0.014267
												}
											}
										}
									}
									JOINT LeftHandRing
									{
										OFFSET 0.046405 0.003329 -0.047084
										CHANNELS 6 Xposition Yposition Zposition Xrotation Yrotation Zrotation
										JOINT LeftHandRing1
										{
											OFFSET 0.017651 0.005483 -0.017340
											CHANNELS 3 Xrotation Yrotation Zrotation
											JOINT LeftHandRing2
											{
												OFFSET 0.024964 0.007655 -0.024273
												CHANNELS 3 Xrotation Yrotation Zrotation
												JOINT LeftHandRing3
												{
													OFFSET 0.017087 0.005242 -0.016765
													CHANNELS 3 Xrotation Yrotation Zrotation
													End Site
													{
														OFFSET 0.015061 0.004559 -0.014753
													}
												}
											}
										}
									}
									JOINT LeftHandPinky1
									{
										OFFSET 0.054365 0.031313 -0.061934
										CHANNELS 6 Xposition Yposition Zposition Xrotation Yrotation Zrotation
										JOINT LeftHandPinky2
										{
											OFFSET 0.018869 0.006308 -0.017482
											CHANNELS 3 Xrotation Yrotation Zrotation
											JOINT LeftHandPinky3
											{
												OFFSET 0.014749 0.004932 -0.013869
												CHANNELS 3 Xrotation Yrotation Zrotation
												End Site
												{
													OFFSET 0.012983 0.004356 -0.012108
												}
											}
										}
									}
									JOINT LeftHandThumb1
									{
										OFFSET 0.003162 -0.027094 -0.003542
										CHANNELS 6 Xposition Yposition Zposition Xrotation Yrotation Zrotation
										JOINT LeftHandThumb2
										{
											OFFSET 0.023288 -0.036229 -0.028074
											CHANNELS 3 Xrotation Yrotation Zrotation
											JOINT LeftHandThumb3
											{
												OFFSET 0.017528 -0.020656 -0.021358
												CHANNELS 3 Xrotation Yrotation Zrotation
												End Site
												{
													OFFSET 0.013673 -0.012688 -0.017614
												}
											}
										}
									}
								}
							}
							JOINT LeftForeArmRoll
							{
								OFFSET 0.175251 0.034509 -0.193627
								CHANNELS 3 Xrotation Yrotation Zrotation
								End Site
								{
									OFFSET 0.208497 -0.010217 -0.217138
								}
							}
							JOINT @Control_LArmTwist
							{
								OFFSET 0.259235 0.033754 -0.192735
								CHANNELS 6 Xposition Yposition Zposition Xrotation Yrotation Zrotation
								End Site
								{
									OFFSET 0.126557 0.000000 -0.144643
								}
							}
						}
						JOINT LeftArmRoll
						{
							OFFSET 0.138742 0.044818 -0.023253
							CHANNELS 3 Xrotation Yrotation Zrotation
							End Site
							{
								OFFSET 0.175251 0.034509 -0.193627
							}
						}
					}
				}
			}
			JOINT Pelvis
			{
				OFFSET 0.002437 0.012264 0.155785
				CHANNELS 3 Xrotation Yrotation Zrotation
				JOINT @Link_leg1
				{
					OFFSET -0.002686 -0.011833 -0.153504
					CHANNELS 3 Xrotation Yrotation Zrotation
					JOINT RightUpLeg
					{
						OFFSET -0.114039 -0.000431 -0.061666
						CHANNELS 6 Xposition Yposition Zposition Xrotation Yrotation Zrotation
						JOINT RightLeg
						{
							OFFSET -0.025931 -0.019598 -0.407563
							CHANNELS 3 Xrotation Yrotation Zrotation
							JOINT RightFoot
							{
								OFFSET -0.029415 0.102292 -0.421683
								CHANNELS 3 Xrotation Yrotation Zrotation
								JOINT RightToeBase
								{
									OFFSET -0.004044 -0.162647 -0.102952
									CHANNELS 3 Xrotation Yrotation Zrotation
									End Site
									{
										OFFSET -0.001006 -0.074634 -0.003095
									}
								}
							}
						}
						JOINT RightLegRoll
						{
							OFFSET -0.025931 -0.019598 -0.407563
							CHANNELS 3 Xrotation Yrotation Zrotation
							End Site
							{
								OFFSET -0.029415 0.102292 -0.421683
							}
						}
					}
					JOINT RightUpLegRoll
					{
						OFFSET -0.114039 -0.000431 -0.061666
						CHANNELS 6 Xposition Yposition Zposition Xrotation Yrotation Zrotation
						End Site
						{
							OFFSET -0.025931 -0.019598 -0.407563
						}
					}
				}
				JOINT @Link_leg2
				{
					OFFSET -0.002686 -0.011833 -0.153504
					CHANNELS 3 Xrotation Yrotation Zrotation
					JOINT LeftUpLeg
					{
						OFFSET 0.114536 -0.000431 -0.061666
						CHANNELS 6 Xposition Yposition Zposition Xrotation Yrotation Zrotation
						JOINT LeftLeg
						{
							OFFSET 0.025931 -0.019598 -0.407563
							CHANNELS 3 Xrotation Yrotation Zrotation
							End Site
							{
								OFFSET 0.029415 0.102292 -0.421683
							}
						}
						JOINT LeftLegRoll
						{
							OFFSET 0.025931 -0.019598 -0.407563
							CHANNELS 3 Xrotation Yrotation Zrotation
							JOINT LeftFoot
							{
								OFFSET 0.029415 0.102292 -0.421683
								CHANNELS 3 Xrotation Yrotation Zrotation
								JOINT LeftToeBase
								{
									OFFSET 0.004044 -0.162647 -0.102952
									CHANNELS 3 Xrotation Yrotation Zrotation
									End Site
									{
										OFFSET 0.001006 -0.074634 -0.003095
									}
								}
							}
						}
					}
					JOINT LeftUpLegRoll
					{
						OFFSET 0.114536 -0.000431 -0.061666
						CHANNELS 6 Xposition Yposition Zposition Xrotation Yrotation Zrotation
						End Site
						{
							OFFSET 0.025931 -0.019598 -0.407563
						}
					}
				}
			}
			JOINT @Pole_LeftArm
			{
				OFFSET 0.378035 0.522408 0.283092
				CHANNELS 6 Xposition Yposition Zposition Xrotation Yrotation Zrotation
				End Site
				{
					OFFSET 0.208497 0.004421 -0.217138
				}
			}
			JOINT @Pole_RightArm
			{
				OFFSET -0.378035 0.522408 0.283092
				CHANNELS 6 Xposition Yposition Zposition Xrotation Yrotation Zrotation
				End Site
				{
					OFFSET -0.208497 0.004421 -0.217138
				}
			}
			JOINT @Ik_LeftArm
			{
				OFFSET 0.586532 0.074236 0.065954
				CHANNELS 6 Xposition Yposition Zposition Xrotation Yrotation Zrotation
				End Site
				{
					OFFSET 0.043064 -0.008346 -0.041059
				}
			}
			JOINT @Ik_RightArm
			{
				OFFSET -0.586532 0.074236 0.065954
				CHANNELS 6 Xposition Yposition Zposition Xrotation Yrotation Zrotation
				End Site
				{
					OFFSET -0.040808 -0.007909 -0.038907
				}
			}
		}
		JOINT @Control_RHandClose
		{
			OFFSET -0.752378 -0.049177 0.478011
			CHANNELS 6 Xposition Yposition Zposition Xrotation Yrotation Zrotation
			End Site
			{
				OFFSET -0.145813 0.000000 -0.127851
			}
		}
		JOINT @Control_RHandfingerClose
		{
			OFFSET -0.752378 0.172875 0.478011
			CHANNELS 6 Xposition Yposition Zposition Xrotation Yrotation Zrotation
			End Site
			{
				OFFSET -0.145813 0.000000 -0.127851
			}
		}
		JOINT @Control_LHandclose
		{
			OFFSET 0.770173 -0.049177 0.478176
			CHANNELS 6 Xposition Yposition Zposition Xrotation Yrotation Zrotation
			End Site
			{
				OFFSET 0.142962 0.000000 -0.128028
			}
		}
		JOINT @Control_LFingerclose
		{
			OFFSET 0.770173 0.172875 0.478176
			CHANNELS 6 Xposition Yposition Zposition Xrotation Yrotation Zrotation
			End Site
			{
				OFFSET 0.142962 0.000000 -0.128028
			}
		}
		JOINT @Control_Lfoot
		{
			OFFSET 0.173678 0.124495 -0.991583
			CHANNELS 6 Xposition Yposition Zposition Xrotation Yrotation Zrotation
			JOINT @Ik_LeftToe
			{
				OFFSET 0.001006 -0.279083 -0.003095
				CHANNELS 6 Xposition Yposition Zposition Xrotation Yrotation Zrotation
				JOINT @Ik_Leftfoot
				{
					OFFSET -0.001006 0.074634 0.003095
					CHANNELS 6 Xposition Yposition Zposition Xrotation Yrotation Zrotation
					JOINT @Ik_leftleg
					{
						OFFSET -0.004044 0.162647 0.102952
						CHANNELS 6 Xposition Yposition Zposition Xrotation Yrotation Zrotation
						JOINT @Pole_LeftFoot
						{
							OFFSET -0.000000 -0.061669 0.097283
							CHANNELS 6 Xposition Yposition Zposition Xrotation Yrotation Zrotation
							End Site
							{
								OFFSET 0.004044 -0.162647 -0.102952
							}
						}
					}
				}
			}
		}
		JOINT @Control_Rfoot
		{
			OFFSET -0.173678 0.124495 -0.991583
			CHANNELS 6 Xposition Yposition Zposition Xrotation Yrotation Zrotation
			JOINT @Ik_RightToe
			{
				OFFSET -0.001006 -0.279083 -0.003095
				CHANNELS 6 Xposition Yposition Zposition Xrotation Yrotation Zrotation
				JOINT @Ik_Rightfoot
				{
					OFFSET 0.001006 0.074634 0.003095
					CHANNELS 6 Xposition Yposition Zposition Xrotation Yrotation Zrotation
					JOINT @Ik_rightleg
					{
						OFFSET 0.004044 0.162647 0.102952
						CHANNELS 6 Xposition Yposition Zposition Xrotation Yrotation Zrotation
						JOINT @Pole_RightFoot
						{
							OFFSET -0.000000 -0.061669 0.097283
							CHANNELS 6 Xposition Yposition Zposition Xrotation Yrotation Zrotation
							End Site
							{
								OFFSET -0.004044 -0.162647 -0.102952
							}
						}
					}
				}
			}
		}
	}
	JOINT launcher
	{
		OFFSET 1.006129 0.000000 0.002996
		CHANNELS 6 Xposition Yposition Zposition Xrotation Yrotation Zrotation
		End Site
		{
			OFFSET 0.000000 -0.442277 0.000000
		}
	}
	JOINT Weapon
	{
		OFFSET -1.000000 0.000000 0.000000
		CHANNELS 6 Xposition Yposition Zposition Xrotation Yrotation Zrotation
		End Site
		{
			OFFSET -0.000000 -0.442277 0.000000
		}
	}
	JOINT @Pole_LeftLeg
	{
		OFFSET 0.140219 -0.502319 -0.466948
		CHANNELS 6 Xposition Yposition Zposition Xrotation Yrotation Zrotation
		End Site
		{
			OFFSET 0.029415 0.102292 -0.421683
		}
	}
	JOINT @Pole_RightLeg
	{
		OFFSET -0.140219 -0.502319 -0.466948
		CHANNELS 6 Xposition Yposition Zposition Xrotation Yrotation Zrotation
		End Site
		{
			OFFSET -0.029415 0.102292 -0.421683
		}
	}
}
MOTION
Frames: 2
Frame Time: 0.041667
0.000000 0.000000 0.000000 -0.000000 0.000000 -0.000000 0.000000 0.000000 0.000000 0.000000 -0.000000 -0.000000 5.529887 0.167788 1.711154 1.945986 -0.138497 -0.577876 -0.000000 -0.000000 -0.000000 -0.000002 0.000000 -0.000000 -5.851729 -0.605068 1.849273 0.426556 0.036609 -0.136843 -0.064055 -0.021555 0.213400 -0.000000 0.000000 0.000003 -26.256446 -28.254449 11.028176 -36.013019 -29.531621 7.305213 6.443119 -16.030959 14.618070 -3.102571 -41.756515 3.443902 -0.985447 -41.851011 3.435758 -0.744392 -41.910980 2.781941 -0.064175 -0.035544 -0.061509 10.268173 -41.555008 4.248870 5.795430 -41.617374 4.057000 11.305914 -39.407586 12.218991 -0.046405 0.003329 -0.047084 0.505915 3.292081 0.496489 -18.797314 -43.532081 -0.913294 -10.801685 -44.889106 -1.662802 -15.378070 -43.562462 -8.229561 -0.054365 0.031313 -0.061934 -19.873071 -38.023011 5.390897 -7.604281 -39.690055 2.081492 -7.598998 -39.701462 1.991741 -0.003161 -0.027093 -0.003541 18.192699 10.250076 18.787866 8.468135 -30.250932 -39.482247 -3.426755 1.679334 -7.466638 -36.013009 -29.531627 7.305225 -0.277806 0.033755 -0.191530 29.341615 8.490367 31.659293 -26.169170 -28.429489 10.862150 0.064030 -0.021555 0.213400 0.000000 -0.000004 -0.000000 13.946029 -9.910413 7.286086 -51.381990 66.092612 -31.232351 -7.768998 -18.038676 19.115355 0.195410 27.118844 0.173693 6.197276 83.868460 -13.419328 -13.790458 32.549779 -7.860930 0.065650 -0.032343 -0.064691 4.497585 3.752679 -8.783962 -0.009098 5.942693 -2.150526 5.703514 27.828368 -7.756363 0.046405 0.003329 -0.047084 0.075301 -0.478361 -0.073958 -27.005282 58.434816 17.185041 -23.056333 57.614066 22.932633 -35.537679 61.954453 30.631940 0.048978 0.033307 -0.074110 -71.544722 54.679653 53.588595 -20.851721 65.223539 19.871693 -13.379616 40.632413 10.310863 0.002912 -0.031981 0.001069 5.586887 7.352799 -2.570526 -2.939424 6.823765 -8.397796 -0.690131 0.068270 -10.757210 -51.028978 67.041647 -30.358944 0.259235 0.033754 -0.192735 23.470366 -5.727101 -27.077397 13.898752 -10.015386 7.232650 0.000000 0.000000 0.000000 0.000001 0.000000 0.000001 -0.114039 -0.000431 -0.061666 -93.236720 0.045268 -0.452610 1.395268 0.028013 -0.090326 8.554636 -1.527129 -0.441698 0.248775 -0.036099 0.917863 1.395224 0.034405 -0.088833 -0.114039 -0.000431 -0.061666 -93.236788 0.023691 -0.473505 0.000001 0.000000 -0.000001 0.114536 -0.000431 -0.061666 -103.202779 -11.364488 0.261554 19.802926 -0.186378 1.319748 19.803432 -0.278790 1.313366 8.355301 1.900453 -1.619105 -0.000127 0.242581 -6.392123 0.114536 -0.000431 -0.061666 -103.201986 -11.343243 0.285794 0.378035 0.522408 0.283092 0.000000 -0.000003 0.000000 -0.333688 0.538989 0.085922 0.000001 -0.000001 0.000000 0.323845 -0.101540 0.175281 -48.931711 40.852669 1.723591 -0.188813 -0.337789 0.112550 -51.895542 -75.341542 20.768592 -0.752378 -0.049177 0.478011 0.025766 -10.477675 -0.030180 -0.752252 0.126431 0.477867 -0.000001 -0.000004 -0.000000 0.770173 -0.049177 0.478176 0.000003 8.549260 0.000005 0.770173 0.172875 0.478176 -0.000000 0.000002 0.000000 0.231323 -0.868098 -0.138937 -67.711893 -14.765672 26.222940 0.001006 -0.279083 -0.003095 1.153243 13.838957 -25.612294 -0.001006 0.074634 0.003095 -2.013361 -7.534331 4.948294 -0.004044 0.162647 0.102952 0.000000 -0.000000 0.000000 -0.000000 -0.061669 0.097283 -0.000002 0.000001 0.000001 -0.173678 -0.928517 -0.159266 -83.459407 0.000006 -0.000007 -0.001006 -0.279083 -0.003095 -0.000000 -0.000000 0.000000 0.001006 0.074634 0.003095 -0.000000 -0.000000 0.000000 0.004044 0.162647 0.102952 -0.000000 0.000000 0.000000 -0.000000 -0.061669 0.097283 0.000000 0.000000 0.000000 1.005979 0.044207 0.003771 7.479137 0.087354 1.126585 -0.015591 -0.676809 0.007631 96.499542 -3.380003 90.189035 0.324631 -0.651916 0.475112 -74.792887 -9.343360 4.900119 -0.155238 -0.503356 0.513935 -83.459407 0.000006 -0.000007 
0.000000 0.000000 0.000000 -0.000000 0.000000 -0.000000 0.000000 0.000000 0.000000 0.000000 -0.000000 -0.000000 5.529911 0.164173 1.711551 1.945985 -0.138497 -0.577876 0.000000 -0.000000 -0.000000 -0.000002 -0.000007 0.000032 -5.851721 -0.605383 1.856101 0.428558 0.043902 -0.284886 -0.064055 -0.021555 0.213400 -0.000003 0.000000 0.000002 -26.213547 -28.203863 11.086130 -36.061377 -29.585719 7.330302 6.403250 -15.992661 14.537890 -3.100928 -41.682192 3.440384 -0.986219 -41.776849 3.428318 -0.745127 -41.836688 2.776266 -0.064175 -0.035544 -0.061509 10.243201 -41.478175 4.224512 5.774056 -41.539356 4.042907 11.269176 -39.335654 12.180865 -0.046405 0.003329 -0.047084 0.505916 3.292086 0.496489 -18.762451 -43.462027 -0.888091 -10.774709 -44.817393 -1.651024 -15.338558 -43.494211 -8.199199 -0.054365 0.031313 -0.061934 -19.842210 -37.955552 5.403422 -7.589926 -39.621275 2.076672 -7.584621 -39.632644 1.987091 -0.003161 -0.027093 -0.003541 18.175671 10.260012 18.778700 8.442512 -30.229256 -39.481642 -3.431103 1.681402 -7.464423 -36.061380 -29.585719 7.330322 -0.277806 0.033755 -0.191530 29.341615 8.490363 31.659296 -26.126332 -28.378995 10.920413 0.064030 -0.021555 0.213400 0.000000 -0.000003 -0.000002 13.944553 -9.907263 7.285169 -51.378428 66.089218 -31.232587 -7.772037 -18.035328 19.113723 0.195409 27.118843 0.173690 6.197231 83.868460 -13.419294 -13.790452 32.549779 -7.860929 0.065650 -0.032343 -0.064691 4.497581 3.752673 -8.783965 -0.009099 5.942692 -2.150530 5.703512 27.828366 -7.756359 0.046405 0.003329 -0.047084 0.075297 -0.478364 -0.073964 -27.005282 58.434809 17.185038 -23.056328 57.614066 22.932621 -35.537652 61.954453 30.631933 0.048978 0.033307 -0.074110 -71.544729 54.679657 53.588588 -20.851731 65.223539 19.871706 -13.379610 40.632423 10.310860 0.002912 -0.031981 0.001069 5.586885 7.352795 -2.570531 -2.939419 6.823767 -8.397802 -0.690135 0.068267 -10.757206 -51.025314 67.038245 -30.359354 0.259235 0.033754 -0.192735 23.470364 -5.727097 -27.077397 13.897306 -10.012214 7.231747 0.000000 0.000000 0.000000 0.000001 0.000000 0.000001 -0.114039 -0.000431 -0.061666 -93.246562 0.045246 -0.452013 1.414187 0.028377 -0.091556 8.545572 -1.527317 -0.441018 0.248769 -0.036100 0.917884 1.414138 0.034857 -0.090043 -0.114039 -0.000431 -0.061666 -93.246637 0.023670 -0.472910 0.000001 0.000000 -0.000001 0.114536 -0.000431 -0.061666 -103.266764 -11.360122 0.233274 19.903330 -0.186148 1.326528 19.903853 -0.279028 1.320195 8.353934 1.914567 -1.628194 -0.000539 0.242525 -6.390176 0.114536 -0.000431 -0.061666 -103.265965 -11.338882 0.257537 0.378022 0.522409 0.283079 0.000000 -0.000003 0.000000 -0.334385 0.538903 0.086590 0.000001 -0.000001 0.000000 0.323845 -0.101540 0.175281 -48.931711 40.852669 1.723591 -0.188812 -0.337801 0.112806 -51.895542 -75.341542 20.768592 -0.752378 -0.049177 0.478011 0.025749 -10.470172 -0.030160 -0.752252 0.126431 0.477867 -0.000001 -0.000004 -0.000000 0.770173 -0.049177 0.478176 0.000003 8.549260 0.000005 0.770173 0.172875 0.478176 -0.000000 0.000002 0.000000 0.231248 -0.867833 -0.138829 -67.678876 -14.751139 26.210084 0.001006 -0.279083 -0.003095 1.153242 13.838960 -25.612296 -0.001006 0.074634 0.003095 -2.013360 -7.534330 4.948292 -0.004044 0.162647 0.102952 -0.000001 0.000002 -0.000001 -0.000000 -0.061669 0.097283 -0.000002 0.000002 -0.000002 -0.173678 -0.928496 -0.159264 -83.459407 0.000006 -0.000007 -0.001006 -0.279083 -0.003095 -0.000000 -0.000000 0.000000 0.001006 0.074634 0.003095 -0.000000 -0.000000 0.000000 0.004044 0.162647 0.102952 -0.000000 0.000000 0.000000 -0.000000 -0.061669 0.097283 0.000000 0.000000 0.000000 1.005989 0.044208 0.003834 7.479160 0.083755 1.127105 -0.015590 -0.676821 0.007887 96.499542 -3.380003 90.189035 0.324560 -0.652070 0.475367 -74.758333 -9.327404 4.889430 -0.155238 -0.503335 0.513937 -83.459407 0.000006 -0.000007 
